<?xml version="1.0" encoding="UTF-8" standalone="no"?>
<!-- Created with Inkscape (http://www.inkscape.org/) -->

<svg
   xmlns:dc="http://purl.org/dc/elements/1.1/"
   xmlns:cc="http://creativecommons.org/ns#"
   xmlns:rdf="http://www.w3.org/1999/02/22-rdf-syntax-ns#"
   xmlns:svg="http://www.w3.org/2000/svg"
   xmlns="http://www.w3.org/2000/svg"
   xmlns:sodipodi="http://sodipodi.sourceforge.net/DTD/sodipodi-0.dtd"
   xmlns:inkscape="http://www.inkscape.org/namespaces/inkscape"
   id="svg2985"
   version="1.1"
   inkscape:version="0.48.5 r10040"
   width="64"
   height="64"
   sodipodi:docname="JudyIcon.svg"
   inkscape:export-filename="D:\Metroidvania\Judy\IDE\images\icon128.png"
   inkscape:export-xdpi="180"
   inkscape:export-ydpi="180">
  <metadata
     id="metadata2991">
    <rdf:RDF>
      <cc:Work
         rdf:about="">
        <dc:format>image/svg+xml</dc:format>
        <dc:type
           rdf:resource="http://purl.org/dc/dcmitype/StillImage" />
        <dc:title></dc:title>
      </cc:Work>
    </rdf:RDF>
  </metadata>
  <defs
     id="defs2989" />
  <sodipodi:namedview
     pagecolor="#ffffff"
     bordercolor="#666666"
     borderopacity="1"
     objecttolerance="10"
     gridtolerance="10"
     guidetolerance="10"
     inkscape:pageopacity="0"
     inkscape:pageshadow="2"
     inkscape:window-width="1638"
     inkscape:window-height="860"
     id="namedview2987"
     showgrid="false"
     inkscape:zoom="7.44"
     inkscape:cx="34.934577"
     inkscape:cy="32.732721"
     inkscape:window-x="-8"
     inkscape:window-y="-8"
     inkscape:window-maximized="1"
     inkscape:current-layer="svg2985" />
  <path
     style="fill:#000000;stroke:none"
     d="m 29.48796,62.980635 c -3.227852,-0.406847 -6.398023,-1.397369 -9.179305,-2.868082 -4.242784,-2.930918 -5.672779,-5.434769 -5.615308,-12.100162 0.04153,-4.816297 0.08797,-9.499955 0.09339,-13.627508 L 31.46008,17.712051 48.133431,1.0392165 48.124431,28.64862 c -0.615816,5.683573 0.08039,13.917416 -0.129545,19.625979 -0.278854,7.582574 -2.259176,12.147977 -12.038091,14.384688 -1.342989,0.274597 -5.285847,0.470462 -6.468896,0.321348 z m 5.343704,-6.711458 c 4.714452,-1.685296 7.250828,-2.63064 8.010979,-9.716312 0.0011,-9.525324 0.222099,-32.103716 0.162559,-32.103716 -0.05955,0 -2.549036,2.44139 -5.532181,5.42531 l -5.423902,5.425311 0.04611,10.674332 c 0.04966,11.496842 0.05576,11.392792 -0.687466,11.731428 -0.847666,0.386222 -2.182028,0.04401 -2.53978,-0.651372 -0.114803,-0.223147 -0.276501,-0.843519 -0.359329,-1.378601 -0.252504,-1.631225 -0.994944,-2.436244 -2.750882,-2.982753 -1.094087,-0.34052 -2.975734,-0.367761 -3.88978,-0.05631 -1.175338,0.40048 -2.035476,1.35606 -2.445643,2.717022 -0.251676,0.835075 -0.390132,2.797086 -0.255683,3.623173 0.268587,1.650262 1.463376,3.339189 3.19328,4.513944 3.285031,2.230822 8.852081,3.471097 12.471703,2.778548 l 0,0 z"
     id="path2999"
     inkscape:connector-curvature="0"
     sodipodi:nodetypes="ccsccccscccccsscsssssssssccc" />
</svg>
